<svg width="281.51000366210934px" height="69.92000274658203px" xmlns="http://www.w3.org/2000/svg" viewBox="109.24499816894533 40.039998626708986 281.51000366210934 69.92000274658203" style="background: rgba(0, 0, 0, 0);" preserveAspectRatio="xMidYMid"><defs><linearGradient id="editing-outline-gradient" x1="-0.41354545764260087" x2="1.4135454576426008" y1="0.09326335692419985" y2="0.9067366430758002"><stop offset="0" stop-color="#ee4208"></stop><stop offset="1" stop-color="#4139ff"></stop></linearGradient><filter id="editing-outline" x="-100%" y="-100%" width="300%" height="300%"><feMorphology in="SourceGraphic" operator="dilate" radius="1" result="outline"></feMorphology><feComposite operator="out" in="outline" in2="SourceAlpha"></feComposite></filter></defs><g filter="url(#editing-outline)"><g transform="translate(153.97501516342163, 84.78500175476074)"><path d="M6.41 0L2.40 0L2.40-18.96L6.41-18.96L6.41-18.96Q8.03-18.96 9.42-18.79L9.42-18.79L9.42-18.79Q10.81-18.63 11.97-18.22L11.97-18.22L11.97-18.22Q13.13-17.81 14.01-17.13L14.01-17.13L14.01-17.13Q14.88-16.45 15.52-15.40L15.52-15.40L15.52-15.40Q16.14-14.34 16.45-12.89L16.45-12.89L16.45-12.89Q16.77-11.44 16.77-9.48L16.77-9.48L16.77-9.48Q16.77-7.51 16.45-6.06L16.45-6.06L16.45-6.06Q16.14-4.61 15.52-3.56L15.52-3.56L15.52-3.56Q14.88-2.50 14.01-1.83L14.01-1.83L14.01-1.83Q13.13-1.15 11.97-0.74L11.97-0.74L11.97-0.74Q10.81-0.33 9.42-0.16L9.42-0.16L9.42-0.16Q8.03 0 6.41 0L6.41 0ZM4.88-2.03L6.82-2.03L6.82-2.03Q8.83-2.03 10.24-2.43L10.24-2.43L10.24-2.43Q11.64-2.83 12.54-3.74L12.54-3.74L12.54-3.74Q13.42-4.65 13.82-6.06L13.82-6.06L13.82-6.06Q14.23-7.46 14.23-9.48L14.23-9.48L14.23-9.48Q14.23-11.50 13.82-12.90L13.82-12.90L13.82-12.90Q13.42-14.30 12.54-15.21L12.54-15.21L12.54-15.21Q11.64-16.12 10.24-16.53L10.24-16.53L10.24-16.53Q8.83-16.93 6.82-16.93L6.82-16.93L4.88-16.93L4.88-2.03ZM25.46-14.01L25.46-14.01L25.46-14.01Q26.10-14.01 26.80-13.92L26.80-13.92L26.80-13.92Q27.50-13.82 28.17-13.54L28.17-13.54L28.17-13.54Q28.85-13.25 29.45-12.76L29.45-12.76L29.45-12.76Q30.05-12.26 30.51-11.47L30.51-11.47L30.51-11.47Q30.97-10.67 31.23-9.54L31.23-9.54L31.23-9.54Q31.50-8.41 31.50-6.86L31.50-6.86L31.50-6.86Q31.50-5.30 31.23-4.17L31.23-4.17L31.23-4.17Q30.97-3.05 30.51-2.25L30.51-2.25L30.51-2.25Q30.05-1.45 29.45-0.95L29.45-0.95L29.45-0.95Q28.85-0.45 28.17-0.17L28.17-0.17L28.17-0.17Q27.50 0.12 26.80 0.22L26.80 0.22L26.80 0.22Q26.10 0.32 25.46 0.32L25.46 0.32L25.46 0.32Q24.82 0.32 24.13 0.22L24.13 0.22L24.13 0.22Q23.44 0.12 22.77-0.17L22.77-0.17L22.77-0.17Q22.10-0.45 21.50-0.95L21.50-0.95L21.50-0.95Q20.91-1.45 20.45-2.25L20.45-2.25L20.45-2.25Q19.99-3.05 19.72-4.17L19.72-4.17L19.72-4.17Q19.46-5.30 19.46-6.86L19.46-6.86L19.46-6.86Q19.46-8.41 19.72-9.54L19.72-9.54L19.72-9.54Q19.99-10.67 20.45-11.47L20.45-11.47L20.45-11.47Q20.91-12.26 21.50-12.76L21.50-12.76L21.50-12.76Q22.10-13.25 22.77-13.54L22.77-13.54L22.77-13.54Q23.44-13.82 24.13-13.92L24.13-13.92L24.13-13.92Q24.81-14.01 25.46-14.01ZM25.46-12.16L25.46-12.16L25.46-12.16Q24.71-12.16 24.04-11.92L24.04-11.92L24.04-11.92Q23.37-11.68 22.87-11.09L22.87-11.09L22.87-11.09Q22.36-10.48 22.06-9.47L22.06-9.47L22.06-9.47Q21.75-8.45 21.75-6.86L21.75-6.86L21.75-6.86Q21.75-5.27 22.06-4.25L22.06-4.25L22.06-4.25Q22.36-3.23 22.87-2.64L22.87-2.64L22.87-2.64Q23.37-2.03 24.04-1.80L24.04-1.80L24.04-1.80Q24.71-1.57 25.46-1.57L25.46-1.57L25.46-1.57Q26.22-1.57 26.90-1.80L26.90-1.80L26.90-1.80Q27.58-2.03 28.09-2.64L28.09-2.64L28.09-2.64Q28.61-3.23 28.91-4.25L28.91-4.25L28.91-4.25Q29.20-5.27 29.20-6.86L29.20-6.86L29.20-6.86Q29.20-8.45 28.91-9.47L28.91-9.47L28.91-9.47Q28.61-10.48 28.09-11.09L28.09-11.09L28.09-11.09Q27.58-11.68 26.90-11.92L26.90-11.92L26.90-11.92Q26.22-12.16 25.46-12.16ZM47.47 0L47.47 0L44.46 0L42.81-6.37L40.16 0L37.18 0L33.67-13.72L35.94-13.72L38.83-1.65L42.02-9.56L40.95-13.72L43.22-13.72L46.18-1.65L46.18-1.65Q47.61-4.94 48.17-6.60L48.17-6.60L48.17-6.60Q48.86-8.62 48.86-10.07L48.86-10.07L48.86-10.07Q48.86-11.34 48.24-13.49L48.24-13.49L48.24-13.49Q49.44-13.79 50.41-13.97L50.41-13.97L50.41-13.97Q50.97-12.62 51.11-11.05L51.11-11.05L51.11-11.05Q51.15-10.65 51.15-10.24L51.15-10.24L51.15-10.24Q51.15-8.08 49.94-5.21L49.94-5.21L49.94-5.21Q49.61-4.44 49.19-3.57L49.19-3.57L49.19-3.57Q48.78-2.69 48.22-1.54L48.22-1.54L48.22-1.54Q47.66-0.38 47.47 0ZM54.25-13.47L54.25-13.47L56.44-13.96L56.44-13.96Q56.69-13.17 56.79-12.43L56.79-12.43L56.79-12.43Q56.85-12.08 56.93-11.02L56.93-11.02L57.20-11.02L57.20-11.02Q57.93-12.35 59.00-13.14L59.00-13.14L59.00-13.14Q60.17-14.01 61.48-14.01L61.48-14.01L61.48-14.01Q63.44-14.01 64.47-13.06L64.47-13.06L64.47-13.06Q65.35-12.26 65.69-10.60L65.69-10.60L65.69-10.60Q65.92-9.47 65.92-7.22L65.92-7.22L65.92 0L63.65 0L63.65-7.86L63.65-7.86Q63.65-9.82 63.27-10.67L63.27-10.67L63.27-10.67Q62.70-11.92 60.99-11.92L60.99-11.92L60.99-11.92Q59.77-11.92 58.61-10.76L58.61-10.76L58.61-10.76Q57.84-9.98 56.95-8.48L56.95-8.48L56.95 0L54.69 0L54.69-8.44L54.69-8.44Q54.69-10.22 54.59-11.51L54.59-11.51L54.59-11.51Q54.54-12.31 54.25-13.47ZM71.71-18.96L71.71-5.33L71.71-5.33Q71.71-4.25 71.73-3.51L71.73-3.51L71.73-3.51Q71.76-2.78 71.80-2.23L71.80-2.23L71.80-2.23Q71.84-1.67 71.92-1.23L71.92-1.23L71.92-1.23Q72.01-0.78 72.14-0.24L72.14-0.24L72.14-0.24Q71.59-0.09 71.03 0.03L71.03 0.03L71.03 0.03Q70.48 0.16 69.93 0.25L69.93 0.25L69.93 0.25Q69.66-0.61 69.55-1.32L69.55-1.32L69.55-1.32Q69.44-2.03 69.44-2.72L69.44-2.72L69.44-18.96L71.71-18.96ZM81.17-14.01L81.17-14.01L81.17-14.01Q81.82-14.01 82.52-13.92L82.52-13.92L82.52-13.92Q83.21-13.82 83.89-13.54L83.89-13.54L83.89-13.54Q84.56-13.25 85.16-12.76L85.16-12.76L85.16-12.76Q85.76-12.26 86.22-11.47L86.22-11.47L86.22-11.47Q86.68-10.67 86.95-9.54L86.95-9.54L86.95-9.54Q87.21-8.41 87.21-6.86L87.21-6.86L87.21-6.86Q87.21-5.30 86.95-4.17L86.95-4.17L86.95-4.17Q86.68-3.05 86.22-2.25L86.22-2.25L86.22-2.25Q85.76-1.45 85.16-0.95L85.16-0.95L85.16-0.95Q84.56-0.45 83.89-0.17L83.89-0.17L83.89-0.17Q83.21 0.12 82.52 0.22L82.52 0.22L82.52 0.22Q81.82 0.32 81.17 0.32L81.17 0.32L81.17 0.32Q80.54 0.32 79.85 0.22L79.85 0.22L79.85 0.22Q79.15 0.12 78.48-0.17L78.48-0.17L78.48-0.17Q77.81-0.45 77.22-0.95L77.22-0.95L77.22-0.95Q76.62-1.45 76.16-2.25L76.16-2.25L76.16-2.25Q75.70-3.05 75.44-4.17L75.44-4.17L75.44-4.17Q75.17-5.30 75.17-6.86L75.17-6.86L75.17-6.86Q75.17-8.41 75.44-9.54L75.44-9.54L75.44-9.54Q75.70-10.67 76.16-11.47L76.16-11.47L76.16-11.47Q76.62-12.26 77.22-12.76L77.22-12.76L77.22-12.76Q77.81-13.25 78.48-13.54L78.48-13.54L78.48-13.54Q79.15-13.82 79.84-13.92L79.84-13.92L79.84-13.92Q80.53-14.01 81.17-14.01ZM81.17-12.16L81.17-12.16L81.17-12.16Q80.42-12.16 79.75-11.92L79.75-11.92L79.75-11.92Q79.09-11.68 78.59-11.09L78.59-11.09L78.59-11.09Q78.07-10.48 77.77-9.47L77.77-9.47L77.77-9.47Q77.47-8.45 77.47-6.86L77.47-6.86L77.47-6.86Q77.47-5.27 77.77-4.25L77.77-4.25L77.77-4.25Q78.07-3.23 78.59-2.64L78.59-2.64L78.59-2.64Q79.09-2.03 79.75-1.80L79.75-1.80L79.75-1.80Q80.42-1.57 81.17-1.57L81.17-1.57L81.17-1.57Q81.94-1.57 82.61-1.80L82.61-1.80L82.61-1.80Q83.29-2.03 83.81-2.64L83.81-2.64L83.81-2.64Q84.32-3.23 84.62-4.25L84.62-4.25L84.62-4.25Q84.92-5.27 84.92-6.86L84.92-6.86L84.92-6.86Q84.92-8.45 84.62-9.47L84.62-9.47L84.62-9.47Q84.32-10.48 83.81-11.09L83.81-11.09L83.81-11.09Q83.29-11.68 82.61-11.92L82.61-11.92L82.61-11.92Q81.94-12.16 81.17-12.16ZM91.55-11.29L91.55-11.29L90.97-13.13L90.97-13.13Q93.18-14.01 95.61-14.01L95.61-14.01L95.61-14.01Q97.73-14.01 98.85-13.30L98.85-13.30L98.85-13.30Q100.13-12.48 100.13-10.52L100.13-10.52L100.13-5.13L100.13-5.13Q100.13-4.05 100.16-2.91L100.16-2.91L100.16-2.91Q100.17-2.24 100.29-1.52L100.29-1.52L100.29-1.52Q100.39-0.83 100.56-0.21L100.56-0.21L98.40 0.26L98.40 0.26Q98.10-0.62 98.02-1.71L98.02-1.71L97.76-1.74L97.76-1.74Q96.12 0.32 93.59 0.32L93.59 0.32L93.59 0.32Q91.74 0.32 90.62-0.71L90.62-0.71L90.62-0.71Q89.50-1.73 89.50-3.59L89.50-3.59L89.50-3.59Q89.50-4.97 90.12-5.85L90.12-5.85L90.12-5.85Q90.73-6.74 91.85-7.34L91.85-7.34L91.85-7.34Q93.62-8.31 96.79-8.31L96.79-8.31L96.79-8.31Q97.22-8.31 97.93-8.28L97.93-8.28L97.93-10.28L97.93-10.28Q97.93-11.23 97.35-11.65L97.35-11.65L97.35-11.65Q96.77-12.08 95.53-12.08L95.53-12.08L95.53-12.08Q93.72-12.08 91.55-11.29ZM97.93-3.85L97.93-3.85L97.93-6.62L97.93-6.62Q97.57-6.64 96.89-6.64L96.89-6.64L96.89-6.64Q95.73-6.64 94.75-6.45L94.75-6.45L94.75-6.45Q93.30-6.16 92.50-5.53L92.50-5.53L92.50-5.53Q91.71-4.90 91.71-3.73L91.71-3.73L91.71-3.73Q91.71-1.62 94.00-1.62L94.00-1.62L94.00-1.62Q95.19-1.62 96.21-2.25L96.21-2.25L96.21-2.25Q97.06-2.78 97.93-3.85ZM112.48-13.68L112.48-18.98L114.75-18.98L114.75-5.18L114.75-5.18Q114.75-2.86 114.82-2.14L114.82-2.14L114.82-2.14Q114.88-1.24 115.12-0.21L115.12-0.21L112.93 0.28L112.93 0.28Q112.71-0.46 112.60-1.21L112.60-1.21L112.60-1.21Q112.47-2.14 112.46-2.64L112.46-2.64L112.26-2.64L112.26-2.64Q111.57-1.21 110.74-0.54L110.74-0.54L110.74-0.54Q109.74 0.32 108.26 0.32L108.26 0.32L108.26 0.32Q106.97 0.32 106.04-0.24L106.04-0.24L106.04-0.24Q105.10-0.80 104.58-1.81L104.58-1.81L104.58-1.81Q104.06-2.81 103.81-4.01L103.81-4.01L103.81-4.01Q103.57-5.21 103.57-6.66L103.57-6.66L103.57-6.66Q103.57-8.29 103.91-9.60L103.91-9.60L103.91-9.60Q104.24-10.90 104.94-11.91L104.94-11.91L104.94-11.91Q105.64-12.92 106.81-13.47L106.81-13.47L106.81-13.47Q107.99-14.01 109.57-14.01L109.57-14.01L109.57-14.01Q110.81-14.01 112.48-13.68L112.48-13.68ZM112.48-5.55L112.48-5.55L112.48-11.68L112.48-11.68Q110.99-12.08 109.74-12.08L109.74-12.08L109.74-12.08Q108.67-12.08 107.90-11.69L107.90-11.69L107.90-11.69Q107.13-11.30 106.69-10.59L106.69-10.59L106.69-10.59Q106.26-9.89 106.06-9.02L106.06-9.02L106.06-9.02Q105.86-8.15 105.86-7.07L105.86-7.07L105.86-7.07Q105.86-6.33 105.90-5.77L105.90-5.77L105.90-5.77Q105.93-5.21 106.02-4.55L106.02-4.55L106.02-4.55Q106.10-3.90 106.29-3.44L106.29-3.44L106.29-3.44Q106.47-2.98 106.75-2.58L106.75-2.58L106.75-2.58Q107.02-2.19 107.47-1.98L107.47-1.98L107.47-1.98Q107.91-1.78 108.49-1.78L108.49-1.78L108.49-1.78Q109.89-1.78 110.91-2.90L110.91-2.90L110.91-2.90Q111.65-3.72 112.48-5.55ZM142.49 0L139.97 0L137.48-6.45L129.98-6.45L127.49 0L124.97 0L132.48-18.96L134.97-18.96L142.49 0ZM133.72-16.19L130.75-8.48L136.70-8.48L133.72-16.19ZM145.19-18.96L151.12-18.96L151.12-18.96Q152.43-18.96 153.56-18.67L153.56-18.67L153.56-18.67Q154.70-18.39 155.53-17.75L155.53-17.75L155.53-17.75Q156.37-17.11 156.85-16.08L156.85-16.08L156.85-16.08Q157.33-15.06 157.33-13.58L157.33-13.58L157.33-13.58Q157.33-11.93 156.78-10.89L156.78-10.89L156.78-10.89Q156.23-9.85 155.28-9.24L155.28-9.24L155.28-9.24Q154.34-8.64 153.09-8.41L153.09-8.41L153.09-8.41Q151.85-8.19 150.46-8.19L150.46-8.19L150.46-8.19Q149.71-8.19 148.99-8.24L148.99-8.24L148.99-8.24Q148.28-8.29 147.64-8.36L147.64-8.36L147.64 0L145.19 0L145.19-18.96ZM147.64-16.98L147.64-10.34L147.64-10.34Q148.28-10.26 148.97-10.21L148.97-10.21L148.97-10.21Q149.66-10.16 150.36-10.16L150.36-10.16L150.36-10.16Q151.36-10.16 152.20-10.29L152.20-10.29L152.20-10.29Q153.04-10.42 153.63-10.78L153.63-10.78L153.63-10.78Q154.22-11.15 154.55-11.83L154.55-11.83L154.55-11.83Q154.88-12.50 154.88-13.58L154.88-13.58L154.88-13.58Q154.88-14.57 154.60-15.22L154.60-15.22L154.60-15.22Q154.33-15.87 153.83-16.27L153.83-16.27L153.83-16.27Q153.34-16.66 152.65-16.82L152.65-16.82L152.65-16.82Q151.95-16.98 151.12-16.98L151.12-16.98L147.64-16.98ZM163.73-9.20L172.19-19.25L173.87-17.90L166.59-9.28L174.50 0L171.52 0L163.73-9.15L163.73 0L161.25 0L161.25-18.96L163.73-18.96L163.73-9.20ZM186.82-15.77L185.76-17.97L185.76-17.97Q186.22-18.68 186.73-18.96L186.73-18.96L186.73-18.96Q187.25-19.25 187.80-19.25L187.80-19.25L187.80-19.25Q188.25-19.25 188.56-19.06L188.56-19.06L188.56-19.06Q188.88-18.88 189.08-18.57L189.08-18.57L189.08-18.57Q189.28-18.26 189.37-17.84L189.37-17.84L189.37-17.84Q189.46-17.42 189.46-16.94L189.46-16.94L188.92-5.56L187.35-5.12L186.82-15.77ZM188.04-2.95L188.04-2.95L188.04-2.95Q188.37-2.95 188.66-2.83L188.66-2.83L188.66-2.83Q188.96-2.70 189.18-2.49L189.18-2.49L189.18-2.49Q189.40-2.27 189.52-1.97L189.52-1.97L189.52-1.97Q189.65-1.67 189.65-1.34L189.65-1.34L189.65-1.34Q189.65-1.03 189.52-0.74L189.52-0.74L189.52-0.74Q189.40-0.45 189.18-0.22L189.18-0.22L189.18-0.22Q188.96 0 188.66 0.13L188.66 0.13L188.66 0.13Q188.37 0.26 188.04 0.26L188.04 0.26L188.04 0.26Q187.72 0.26 187.42 0.14L187.42 0.14L187.42 0.14Q187.13 0.01 186.90-0.20L186.90-0.20L186.90-0.20Q186.68-0.42 186.55-0.72L186.55-0.72L186.55-0.72Q186.42-1.02 186.42-1.34L186.42-1.34L186.42-1.34Q186.42-1.67 186.55-1.97L186.55-1.97L186.55-1.97Q186.68-2.27 186.90-2.49L186.90-2.49L186.90-2.49Q187.11-2.70 187.41-2.83L187.41-2.83L187.41-2.83Q187.71-2.95 188.04-2.95Z" fill="url(#editing-outline-gradient)"></path></g></g><style>text {
  font-size: 64px;
  font-family: Arial Black;
  dominant-baseline: central;
  text-anchor: middle;
}</style></svg>